<?xml version="1.0" standalone="no"?>
<!DOCTYPE svg PUBLIC "-//W3C//DTD SVG 20010904//EN"
 "http://www.w3.org/TR/2001/REC-SVG-20010904/DTD/svg10.dtd">
<svg version="1.0" xmlns="http://www.w3.org/2000/svg"
 width="512.000000pt" height="512.000000pt" viewBox="0 0 512.000000 512.000000"
 preserveAspectRatio="xMidYMid meet">
<metadata>
Created by potrace 1.11, written by Peter Selinger 2001-2013
</metadata>
<g transform="translate(0.000000,512.000000) scale(0.100000,-0.100000)"
fill="#000000" stroke="none">
<path d="M1130 5025 c-209 -42 -384 -174 -484 -364 -36 -69 -46 -127 -25 -148
8 -8 5 -13 -11 -18 -43 -14 -53 -64 -58 -283 -4 -192 -3 -206 16 -231 19 -26
19 -27 1 -50 -17 -21 -19 -43 -19 -246 0 -210 1 -224 21 -249 11 -14 16 -26
11 -26 -25 0 -32 -59 -32 -268 0 -177 3 -222 15 -239 13 -19 13 -24 0 -50 -22
-41 -22 -445 0 -486 13 -26 13 -31 0 -50 -12 -17 -15 -62 -15 -239 0 -209 7
-268 32 -268 5 0 0 -12 -11 -26 -20 -25 -21 -39 -21 -249 0 -203 2 -225 19
-246 18 -23 18 -24 -1 -50 -19 -25 -20 -39 -16 -231 5 -219 15 -269 58 -283
16 -5 19 -10 11 -18 -36 -36 18 -166 118 -284 64 -77 179 -160 267 -193 139
-52 75 -50 1970 -50 l1764 0 0 251 c0 153 -4 258 -10 270 -7 13 -7 19 0 19 14
0 14 1039 -1 1057 -8 9 -8 13 0 13 16 0 16 511 -1 528 -9 9 -9 12 0 12 16 0
17 492 2 521 -7 13 -7 19 0 19 7 0 10 86 10 254 0 235 -1 256 -19 277 l-19 24
-1207 3 -1206 2 -30 -29 -29 -29 0 -224 c0 -185 3 -227 15 -246 14 -19 14 -24
0 -51 -12 -24 -15 -71 -15 -241 0 -220 6 -259 45 -274 9 -3 308 -6 663 -6
l647 0 -3 -248 c-3 -212 -1 -251 12 -261 14 -11 14 -15 0 -36 -13 -19 -15 -62
-12 -264 l3 -241 -932 0 -933 0 0 229 c0 126 -4 241 -10 255 -6 17 -6 26 0 26
13 0 13 480 0 514 -6 17 -6 26 0 26 15 0 13 485 -1 513 -9 16 -9 22 0 25 14 5
16 485 1 512 -7 13 -7 21 0 25 13 8 13 475 0 509 l-10 26 1520 0 1520 0 0 258
c0 187 -3 261 -12 270 -9 9 -9 12 0 12 9 0 12 63 12 255 l0 256 -25 24 -24 25
-1748 -1 c-1399 -1 -1761 -3 -1813 -14z m3450 -265 l0 -120 -1881 0 c-1501 0
-1879 3 -1873 13 61 101 196 190 329 217 22 4 802 8 1733 9 l1692 1 0 -120z
m0 -535 l0 -125 -1935 0 -1935 0 0 125 0 125 1935 0 1935 0 0 -125z m-3020
-540 l0 -125 -425 0 -425 0 0 125 0 125 425 0 425 0 0 -125z m0 -540 l0 -125
-425 0 -425 0 0 125 0 125 425 0 425 0 0 -125z m3020 0 l0 -125 -1095 0 -1095
0 0 125 0 125 1095 0 1095 0 0 -125z m-3020 -535 l0 -120 -425 0 -425 0 0 120
0 120 425 0 425 0 0 -120z m3020 0 l0 -120 -1095 0 -1095 0 0 120 0 120 1095
0 1095 0 0 -120z m-3020 -535 l0 -125 -425 0 -425 0 0 125 0 125 425 0 425 0
0 -125z m3020 0 l0 -125 -425 0 -425 0 0 118 c0 65 3 122 7 125 3 4 195 7 425
7 l418 0 0 -125z m-3020 -540 l0 -125 -425 0 -425 0 0 125 0 125 425 0 425 0
0 -125z m3020 0 l0 -125 -425 0 -425 0 0 118 c0 65 3 122 7 125 3 4 195 7 425
7 l418 0 0 -125z m0 -540 l0 -125 -1935 0 -1935 0 0 125 0 125 1935 0 1935 0
0 -125z m0 -535 l0 -120 -1693 0 c-1859 0 -1742 -4 -1874 60 -59 29 -160 117
-183 160 l-11 20 1881 0 1880 0 0 -120z"/>
</g>
</svg>
